<svg width="28" height="28" viewBox="0 0 28 28" fill="none" xmlns="http://www.w3.org/2000/svg">
<path d="M19.6202 5.18207V6.63688C19.6202 7.97383 19.1062 9.19287 18.2657 10.1073L22.8256 11.8867V21.8778L24.0065 22.6651C25.927 20.4105 26.9744 17.5775 26.9744 14.5832C26.9744 11.2478 25.6755 8.11197 23.317 5.75351C22.0999 4.53638 20.6755 3.60231 19.1237 2.98248C19.446 3.66088 19.6202 4.4107 19.6202 5.18207Z" fill="white"/>
<path d="M6.14878 21.8777V11.8867L10.7086 10.1072C9.86809 9.19282 9.35414 7.97377 9.35414 6.63682V5.18208C9.35414 4.41071 9.52832 3.66088 9.85059 2.98253C8.29888 3.60237 6.87448 4.53643 5.65735 5.75351C3.29889 8.11197 2 11.2478 2 14.5832C2 17.5775 3.04743 20.4105 4.9679 22.665L6.14878 21.8777Z" fill="white"/>
<path d="M24.0765 25.8396C24.0765 25.1156 23.7169 24.4437 23.1145 24.0421L21.7866 23.1568C21.7866 23.1568 18.5982 25.7587 14.4875 25.7587C10.3768 25.7587 7.18839 23.1568 7.18839 23.1568L5.86041 24.0421C5.25808 24.4437 4.89845 25.1156 4.89845 25.8396C4.89845 27.0308 5.86757 27.9999 7.05872 27.9999H21.9162C23.1074 27.9999 24.0765 27.0308 24.0765 25.8396Z" fill="white"/>
<path d="M7.78909 21.537L8.30496 21.9497C9.83867 23.1766 11.7169 23.9197 13.6664 24.0835V21.4825C12.6533 21.3674 11.6692 21.0412 10.7824 20.5207L10.3773 20.2829V15.223H12.0179V19.3221C12.7877 19.6942 13.6325 19.8893 14.4867 19.8893C15.3409 19.8893 16.1857 19.6943 16.9554 19.3222V15.223H18.596V20.283L18.191 20.5208C17.3042 21.0414 16.3202 21.3675 15.3071 21.4825V24.0835C17.2566 23.9197 19.1348 23.1766 20.6685 21.9497L21.1843 21.537V13.0076L16.7114 11.2621C16.038 11.5873 15.2833 11.7697 14.4868 11.7697C13.6902 11.7697 12.9354 11.5873 12.262 11.2621L7.78914 13.0076L7.78909 21.537Z" fill="white"/>
<path d="M10.9961 5.18208V6.63688C10.9961 8.56249 12.5627 10.1291 14.4884 10.1291C16.414 10.1291 17.9806 8.56254 17.9806 6.63688V5.18208C17.9806 4.042 17.4208 2.97078 16.4832 2.31655L16.1323 2.07171V1.64383C16.1324 0.737275 15.3949 -0.000244141 14.4884 -0.000244141C13.5819 -0.000244141 12.8444 0.737275 12.8444 1.64378V2.0716L12.4935 2.31644C11.5559 2.97078 10.9961 4.042 10.9961 5.18208Z" fill="white"/>
</svg>
