<svg width="100" height="59" viewBox="0 0 100 59" fill="none" xmlns="http://www.w3.org/2000/svg">
<g opacity="0.04">
<path d="M69.2457 54.2904C71.2981 54.5055 73.9816 55.9641 75.9498 54.4353C73.1447 53.9304 70.3771 52.4858 67.7917 51.5181C70.4425 50.4241 73.9489 52.6448 76.2724 50.3259C73.4159 50.2651 70.4659 49.274 67.759 48.7176C70.2088 47.2263 74.019 48.8719 75.9498 46.2164C73.1167 46.6045 70.0498 46.0855 67.2868 45.964C69.4748 44.0939 73.4954 45.1318 74.9868 42.2239C72.2518 43.0561 69.1382 43.0187 66.3938 43.3319C68.2639 41.1533 72.3921 41.5413 73.4066 38.4183C70.8306 39.6619 67.7543 40.1201 65.0895 40.8541C66.5949 38.409 70.7371 38.1472 71.2513 34.9026C68.9138 36.5389 65.9357 37.4693 63.4205 38.61C64.5238 35.9592 68.5631 35.0522 68.5631 31.7703C66.5014 33.7479 63.715 35.1317 61.4101 36.6558C62.0834 33.8507 65.945 32.336 65.4308 29.0914C63.7056 31.3729 61.167 33.1728 59.1287 35.0382C59.3578 32.177 62.9296 30.0638 61.9338 26.9408C60.5873 29.4561 58.362 31.616 56.6415 33.7946C56.4218 30.9334 59.6149 28.2873 58.1282 25.3794C57.1932 28.0816 55.3231 30.5781 53.972 32.9811C53.3081 30.176 56.0478 27.0764 54.1169 24.4163C53.6167 27.2214 52.1721 29.989 51.2043 32.5744C50.1103 29.9236 52.331 26.4172 50.0122 24.0937C49.9514 26.9502 48.9603 29.9002 48.4039 32.6071C46.9125 30.1573 48.5582 26.3471 45.9027 24.4163C46.2908 27.2494 45.7718 30.321 45.6503 33.0793C43.7802 30.8913 44.8181 26.8707 41.9102 25.3794C42.7377 28.1143 42.7049 31.228 43.0182 33.9723C40.8395 32.1022 41.2276 27.9741 38.1046 26.9595C39.3482 29.5309 39.8063 32.6118 40.5403 35.2719C38.0719 33.7292 37.7914 29.587 34.5655 29.0727C36.1971 31.4103 37.1322 34.3883 38.2729 36.9036C35.6221 35.8002 34.7151 31.7609 31.4332 31.7609C33.4108 33.8227 34.7946 36.609 36.3187 38.9139C33.5136 38.2407 31.9989 34.3837 28.7543 34.8933C31.0311 36.6184 32.8357 39.157 34.7011 41.1953C31.8399 40.9663 29.7267 37.3945 26.6038 38.3903C29.119 39.7367 31.2789 41.9621 33.4575 43.6825C30.5963 43.9023 27.9502 40.7091 25.0423 42.1958C27.7445 43.1309 30.241 45.0009 32.644 46.3567C29.8389 47.0206 26.7393 44.2763 24.0792 46.2071C26.8843 46.7073 29.6519 48.152 32.2373 49.1244C29.5865 50.2137 26.0801 47.993 23.7566 50.3165C26.6131 50.3726 29.5631 51.3685 32.27 51.9201C29.8202 53.4115 26.01 51.7658 24.0792 54.426C26.9123 54.0333 29.9792 54.5522 32.7422 54.6784C30.5542 56.5485 26.5336 55.5059 25.0423 58.4186C27.7772 57.5911 30.8909 57.6238 33.6352 57.3106C31.7651 59.4892 27.637 59.1011 26.6225 62.2241C29.1938 60.9805 32.2747 60.5271 34.9348 59.7884C33.4295 62.2335 29.2873 62.4953 28.773 65.7398C31.1106 64.1082 34.0886 63.1778 36.6039 62.0324C35.5005 64.6832 31.4612 65.5902 31.4612 68.8722C33.523 66.8946 36.3093 65.5107 38.6142 63.9867C37.941 66.7917 34.0793 68.3065 34.5936 71.551C36.3187 69.2742 38.8573 67.4696 40.8956 65.6042C40.6666 68.4654 37.0948 70.5786 38.0906 73.7063C39.437 71.1864 41.6624 69.0078 43.3828 66.8478C43.6026 69.709 40.4094 72.3551 41.8961 75.2631C42.8312 72.5655 44.7012 70.0643 46.0523 67.6613C46.7162 70.4664 43.9766 73.566 45.9074 76.2262C46.4076 73.4211 47.8523 70.6534 48.82 68.068C49.914 70.7235 47.6933 74.2252 50.0168 76.5487C50.0729 73.6922 51.0641 70.7422 51.6204 68.0353C53.1118 70.4851 51.4661 74.2953 54.1216 76.2262C53.7336 73.393 54.2525 70.3261 54.3787 67.5678C56.2488 69.7511 55.2062 73.7717 58.1189 75.2631C57.2914 72.5281 57.3241 69.4145 57.0108 66.6702C59.1895 68.5402 58.8014 72.6684 61.9244 73.6829C60.6808 71.1069 60.2227 68.0306 59.4887 65.3658C61.9338 66.8712 62.1956 71.0134 65.4401 71.5276C63.8085 69.1901 62.8735 66.212 61.7327 63.6968C64.3835 64.8001 65.2905 68.8394 68.5725 68.8394C66.5949 66.7824 65.211 63.9913 63.6869 61.6865C66.492 62.3597 68.0068 66.2214 71.2513 65.7071C68.9745 63.982 67.1699 61.4434 65.3045 59.405C68.1657 59.6341 70.2789 63.2059 73.4066 62.2101C70.8867 60.8637 68.708 58.6383 66.5481 56.9178C69.4093 56.6981 72.0554 59.8912 74.9634 58.4045C72.2658 57.4695 69.7646 55.5995 67.3616 54.2483C67.9737 54.0804 68.6196 54.0804 69.2317 54.2483M59.9141 56.3896L55.5756 54.5195L53.8271 58.9095L52.0973 54.5662L47.7588 56.4363L49.6288 52.1024L45.2435 50.3539L49.6288 48.6054L47.7588 44.2669L52.0973 46.137L53.8411 41.747L55.5896 46.1323L59.9281 44.2622L58.0581 48.6008L62.4434 50.3493L58.0581 52.0978L59.9141 56.3896ZM53.5232 36.5015C46.0009 36.5015 39.4978 42.3595 39.4978 50.2511C39.4978 58.1427 46.1084 63.996 53.5232 63.996C57.0966 63.9977 60.5416 62.6637 63.182 60.2559C60.6434 64.356 54.2993 67.3013 50.676 67.3013H48.0767C46.8462 67.1371 45.6269 66.8982 44.4254 66.586C41.882 65.8064 39.5516 64.4532 37.6137 62.6309C34.5421 59.8258 32.3261 54.6223 32.3261 51.3544V49.1197C32.3261 47.6424 33.177 44.7391 33.6726 43.5563C34.41 41.7449 35.4804 40.0878 36.8283 38.6708C40.7741 34.5847 45.2716 33.1822 49.381 33.1822C52.8024 33.1667 56.1478 34.1905 58.9744 36.1181C60.3769 37.0532 62.2891 38.783 63.2148 40.2977C60.5894 37.8381 57.1206 36.4794 53.5232 36.5015Z" fill="white"/>
<path d="M13.317 52.7103C12.9534 52.3591 12.7025 51.9077 12.5961 51.4136C12.4897 50.9194 12.5328 50.4047 12.7197 49.9351C12.9067 49.4655 13.2291 49.062 13.646 48.7761C14.0629 48.4903 14.5554 48.3348 15.0608 48.3296C15.3961 48.3209 15.7297 48.379 16.0424 48.5005C16.355 48.6219 16.6403 48.8043 16.8818 49.0371C17.1232 49.2698 17.316 49.5483 17.4488 49.8562C17.5817 50.1642 17.6519 50.4955 17.6555 50.8308C17.6642 51.1669 17.6059 51.5013 17.4838 51.8145C17.3618 52.1278 17.1786 52.4135 16.9448 52.6551C16.7111 52.8967 16.4315 53.0892 16.1225 53.2215C15.8134 53.3538 15.4811 53.4232 15.145 53.4255C14.8076 53.4377 14.4713 53.3804 14.1568 53.2574C13.8424 53.1344 13.5566 52.9482 13.317 52.7103ZM13.9481 49.7649C13.7258 49.9918 13.5768 50.2802 13.5204 50.5928C13.464 50.9054 13.5028 51.2277 13.6318 51.5179C13.7608 51.8082 13.974 52.053 14.2438 52.2206C14.5137 52.3882 14.8276 52.4708 15.145 52.4578C15.3583 52.4615 15.5702 52.4221 15.7679 52.3417C15.9655 52.2614 16.1449 52.1418 16.2951 51.9903C16.4416 51.8407 16.5561 51.6628 16.6317 51.4675C16.7072 51.2721 16.7422 51.0635 16.7345 50.8542C16.7374 50.6459 16.6974 50.4392 16.6169 50.2469C16.5365 50.0547 16.4174 49.8811 16.267 49.7369C16.1135 49.5877 15.9309 49.4718 15.7306 49.3962C15.5304 49.3206 15.3167 49.287 15.1029 49.2974C14.8902 49.2935 14.679 49.3329 14.4821 49.4133C14.2852 49.4936 14.1067 49.6133 13.9575 49.7649" fill="white"/>
<path d="M13.2657 57.2311L14.7945 55.9829L14.6776 55.2582L12.9946 55.5247L12.845 54.5897L17.6884 53.7996L17.997 55.7351C18.0337 55.9475 18.0269 56.1651 17.9771 56.3749C17.9273 56.5846 17.8354 56.7821 17.7071 56.9553C17.584 57.1304 17.4263 57.2784 17.2438 57.3901C17.0613 57.5019 16.8578 57.5751 16.6459 57.6051C16.3489 57.654 16.044 57.6117 15.7716 57.4836C15.4911 57.3566 15.2527 57.1523 15.0844 56.8945L13.4247 58.2596L13.2657 57.2311ZM16.9497 54.8935L15.5145 55.1226L15.6734 56.1091C15.6868 56.1972 15.7192 56.2814 15.7685 56.3556C15.8178 56.4299 15.8826 56.4926 15.9586 56.5392C16.116 56.6462 16.3093 56.6865 16.4963 56.6514C16.6816 56.6226 16.8489 56.5239 16.9638 56.3756C17.0201 56.3072 17.0613 56.2277 17.0847 56.1423C17.1081 56.0569 17.1131 55.9675 17.0993 55.88L16.9497 54.8935Z" fill="white"/>
<path d="M17.5761 63.0236L17.2161 63.1312C16.9189 63.2376 16.6026 63.2806 16.2878 63.2572C15.9729 63.2338 15.6665 63.1447 15.3882 62.9956C15.1096 62.8396 14.8651 62.6292 14.6691 62.3771C14.4732 62.125 14.3298 61.8361 14.2474 61.5276C14.1346 61.1983 14.0897 60.8496 14.1154 60.5024C14.1411 60.1553 14.2369 59.817 14.397 59.5079C14.5493 59.208 14.7614 58.9424 15.0203 58.7277C15.2793 58.513 15.5795 58.3537 15.9024 58.2597C16.2235 58.1597 16.5612 58.1245 16.8959 58.1562C17.2307 58.1878 17.5558 58.2856 17.8525 58.4439C18.1491 58.6022 18.4113 58.8179 18.6239 59.0784C18.8365 59.3389 18.9952 59.6391 19.0909 59.9614C19.2245 60.3783 19.2502 60.8222 19.1657 61.2518C19.0877 61.6571 18.9038 62.0345 18.6327 62.3457L17.9314 61.6959C18.0959 61.5119 18.2045 61.2849 18.2447 61.0414C18.2956 60.7714 18.2762 60.4929 18.1886 60.2326C18.1327 60.0272 18.0348 59.8356 17.9013 59.6699C17.7677 59.5041 17.6013 59.3678 17.4125 59.2695C17.2223 59.1703 17.0138 59.1113 16.7999 59.096C16.586 59.0807 16.3712 59.1096 16.1689 59.1807C15.9681 59.2387 15.7813 59.3376 15.6204 59.4712C15.4596 59.6047 15.328 59.77 15.2339 59.9568C15.1341 60.1562 15.076 60.3739 15.0631 60.5966C15.0502 60.8192 15.0829 61.0422 15.1591 61.2518C15.2426 61.5694 15.4222 61.8535 15.6734 62.0652C15.898 62.2509 16.1814 62.3503 16.4728 62.3457L16.0333 60.9432L16.8515 60.6907L17.5761 63.0236Z" fill="white"/>
<path d="M82.0788 55.6228L82.9858 55.8238L82.696 57.1142L86.5857 57.9791L86.3753 58.9234L82.4856 58.0585L82.2004 59.3489L81.2981 59.1479L82.0788 55.6228Z" fill="white"/>
<path d="M86.1792 54.7393L86.4036 52.6822L87.3246 52.7851L86.9973 55.8005L82.1165 55.2722L82.439 52.2895L83.36 52.3877L83.1403 54.412L84.1782 54.5242L84.3792 52.6775L85.2862 52.7757L85.0852 54.6224L86.1792 54.7393Z" fill="white"/>
<path d="M87.4648 50.0407C87.4878 50.4723 87.3803 50.9007 87.1562 51.2703C86.9542 51.6008 86.646 51.853 86.282 51.9856L85.7864 51.1674C86.0174 51.0853 86.2146 50.9287 86.3466 50.7221C86.4787 50.5155 86.5382 50.2708 86.5157 50.0267C86.5284 49.8174 86.4744 49.6096 86.3615 49.433C86.3174 49.3758 86.2607 49.3295 86.1958 49.2979C86.131 49.2663 86.0596 49.2501 85.9874 49.2506C85.9059 49.2511 85.8258 49.273 85.7553 49.314C85.6847 49.355 85.6262 49.4137 85.5854 49.4844C85.4524 49.7503 85.3519 50.0313 85.2862 50.3212C85.2367 50.5108 85.1742 50.6966 85.0992 50.8776C85.032 51.0429 84.9457 51.1998 84.842 51.3451C84.7386 51.4977 84.5966 51.6202 84.4306 51.7004C84.2472 51.784 84.0478 51.827 83.8462 51.8266C83.6438 51.8362 83.442 51.799 83.2563 51.7179C83.0706 51.6368 82.9062 51.5141 82.7756 51.3591C82.5047 51.0429 82.357 50.6395 82.3595 50.2231C82.3483 49.8532 82.444 49.4879 82.6354 49.1711C82.8296 48.8614 83.1065 48.6121 83.4348 48.4512L83.9023 49.26C83.7164 49.3343 83.5576 49.4637 83.4473 49.6308C83.337 49.798 83.2804 49.9948 83.2852 50.195C83.2804 50.3626 83.3314 50.527 83.4301 50.6625C83.4724 50.7169 83.5273 50.7602 83.59 50.7887C83.6527 50.8172 83.7214 50.83 83.7901 50.8261C83.8633 50.8275 83.9356 50.8102 84.0003 50.7759C84.0649 50.7415 84.1197 50.6912 84.1595 50.6298C84.2973 50.3974 84.3983 50.1451 84.4587 49.8818C84.5054 49.7322 84.5381 49.62 84.5615 49.5405L84.6784 49.2226C84.7176 49.1157 84.7661 49.0124 84.8233 48.914C84.8795 48.8254 84.942 48.7411 85.0103 48.6616C85.0764 48.575 85.1571 48.5006 85.2488 48.4418C85.3455 48.3884 85.4473 48.3445 85.5527 48.3109C85.6783 48.2723 85.8092 48.2534 85.9407 48.2548C86.1463 48.2412 86.3522 48.2764 86.5415 48.3577C86.7309 48.4389 86.8983 48.5639 87.03 48.7223C87.3153 49.0872 87.4641 49.5403 87.4508 50.0033" fill="white"/>
<path d="M14.5185 36.1556L15.3927 36.4548L14.9579 37.7078L18.7214 39.0075L18.4082 39.9238L14.6447 38.6241L14.2146 39.8724L13.3403 39.5685L14.5185 36.1556Z" fill="white"/>
<path d="M15.117 33.6872C15.1388 33.7454 15.148 33.8076 15.1439 33.8697C15.1399 33.9317 15.1228 33.9922 15.0936 34.0472C15.0675 34.1033 15.0305 34.1537 14.9848 34.1954C14.939 34.2372 14.8854 34.2694 14.8271 34.2903C14.7694 34.3147 14.7074 34.3273 14.6448 34.3273C14.5822 34.3273 14.5201 34.3147 14.4625 34.2903C14.4067 34.2631 14.3569 34.2252 14.316 34.1786C14.2751 34.1321 14.2438 34.0779 14.224 34.0191C14.1996 33.9614 14.187 33.8994 14.187 33.8368C14.187 33.7741 14.1996 33.7121 14.224 33.6544C14.2517 33.5983 14.2904 33.5482 14.3377 33.5072C14.3851 33.4663 14.4403 33.4353 14.4999 33.416C14.5615 33.3918 14.6275 33.381 14.6936 33.3842C14.7596 33.3874 14.8243 33.4046 14.8832 33.4347C14.939 33.4618 14.9887 33.4998 15.0297 33.5463C15.0706 33.5929 15.1019 33.6471 15.1217 33.7059M15.7061 32.4997C15.7255 32.5586 15.733 32.6207 15.7282 32.6825C15.7234 32.7443 15.7063 32.8045 15.678 32.8597C15.6515 32.916 15.614 32.9665 15.5678 33.0081C15.5215 33.0498 15.4674 33.0818 15.4086 33.1023C15.3498 33.1227 15.2876 33.1313 15.2254 33.1273C15.1633 33.1234 15.1026 33.1071 15.0469 33.0794C14.9911 33.0523 14.9413 33.0143 14.9004 32.9678C14.8595 32.9212 14.8282 32.867 14.8084 32.8082C14.7876 32.749 14.779 32.6862 14.783 32.6235C14.787 32.5609 14.8036 32.4997 14.8318 32.4436C14.8589 32.3879 14.8969 32.3381 14.9434 32.2971C14.99 32.2562 15.0442 32.2249 15.103 32.2052C15.16 32.1814 15.2212 32.1691 15.283 32.1691C15.3447 32.1691 15.4059 32.1814 15.4629 32.2052C15.5195 32.2318 15.5702 32.2695 15.612 32.3161C15.6537 32.3627 15.6857 32.4172 15.7061 32.4763M20.1942 35.7816C19.9976 36.2313 19.6386 36.5902 19.189 36.7868C18.9737 36.8768 18.7409 36.9172 18.5078 36.905C18.2748 36.8929 18.0474 36.8285 17.8426 36.7167L14.8832 35.3048L15.304 34.4399L18.2026 35.8424C18.3001 35.8962 18.4074 35.9301 18.5181 35.9422C18.6289 35.9542 18.7409 35.9441 18.8477 35.9125C19.0668 35.7954 19.2434 35.6121 19.3525 35.3889C19.4616 35.1657 19.4977 34.9138 19.4555 34.669C19.4137 34.5632 19.3506 34.4672 19.2702 34.3868C19.1898 34.3064 19.0937 34.2433 18.988 34.2014L16.0894 32.7989L16.5102 31.9293L19.4789 33.3786C19.692 33.467 19.8828 33.6019 20.0373 33.7734C20.1917 33.9448 20.306 34.1485 20.3718 34.3697C20.4893 34.8431 20.4259 35.3432 20.1942 35.7723" fill="white"/>
<path d="M22.7841 31.1906L20.8159 31.0971L20.4138 31.7049L21.8164 32.6399L21.3021 33.4347L17.2207 30.7324L18.3007 29.0961C18.4167 28.9147 18.5687 28.7589 18.7471 28.6383C18.9256 28.5177 19.1269 28.4348 19.3385 28.3949C19.547 28.3474 19.7631 28.3437 19.9731 28.3839C20.1832 28.4241 20.3826 28.5075 20.5588 28.6286C20.8119 28.7938 21.0092 29.0317 21.1244 29.3112C21.2419 29.5949 21.2791 29.9054 21.232 30.2088L23.3779 30.321L22.7841 31.1906ZM18.4923 30.4239L19.7032 31.2233L20.2549 30.3958C20.3035 30.3214 20.3358 30.2374 20.3495 30.1496C20.3632 30.0617 20.358 29.9719 20.3343 29.8862C20.3146 29.7907 20.2758 29.7001 20.2204 29.6198C20.165 29.5395 20.0941 29.4711 20.0118 29.4187C19.935 29.3651 19.8484 29.3271 19.7569 29.3071C19.6655 29.287 19.571 29.2852 19.4788 29.3018C19.3903 29.3122 19.3052 29.3424 19.2299 29.3902C19.1547 29.4379 19.0911 29.502 19.044 29.5777L18.4923 30.4239Z" fill="white"/>
<path d="M26.1176 27.0905L25.393 27.9367L22.5084 27.7778L24.2569 29.2691L23.6258 30.0078L19.895 26.8147L20.5262 26.0807L22.1671 27.4832L21.6201 24.7997L22.3448 23.9535L22.9759 26.8848L26.1176 27.0905Z" fill="white"/>
<path d="M26.0101 20.6482C26.2513 20.4453 26.5324 20.2955 26.8353 20.2085C27.1382 20.1216 27.456 20.0993 27.768 20.1433C28.4067 20.2423 28.9855 20.5761 29.391 21.0793C29.7966 21.5826 29.9997 22.2191 29.9606 22.8642C29.937 23.1784 29.8473 23.484 29.6974 23.7611C29.5476 24.0383 29.341 24.2807 29.0911 24.4725L27.5716 25.6974L24.4907 21.8731L26.0101 20.6482ZM28.5113 23.7525C28.6644 23.635 28.7916 23.4871 28.8849 23.3182C28.9782 23.1493 29.0357 22.9629 29.0537 22.7707C29.0759 22.364 28.9383 21.9647 28.6703 21.658C28.4285 21.3308 28.0672 21.1124 27.6651 21.0503C27.4736 21.0235 27.2786 21.038 27.0931 21.0929C26.9076 21.1477 26.736 21.2416 26.5899 21.3682L25.8278 21.9853L27.7446 24.3649L28.5113 23.7525Z" fill="white"/>
<path d="M31.7466 21.4243L33.5091 20.3396L33.9953 21.1297L31.41 22.7193L28.834 18.5397L31.3913 16.9642L31.8775 17.7543L30.143 18.8202L30.69 19.7085L32.2749 18.736L32.7518 19.5121L31.1716 20.4846L31.7466 21.4243Z" fill="white"/>
<path d="M35.5567 20.3584L32.0083 16.5902L32.962 16.1507L35.6315 19.0774L35.136 15.1503L36.0944 14.7061L36.646 19.8581L35.5567 20.3584Z" fill="white"/>
<path d="M39.1096 17.9179L40.8908 17.3382L41.176 18.2171L38.4785 19.1007L36.9497 14.4349L37.8707 14.131L39.1096 17.9179Z" fill="white"/>
<path d="M42.3403 17.0062L44.3647 16.5714L44.561 17.4737L41.5923 18.1142L40.5544 13.3175L43.4904 12.6817L43.6868 13.5887L41.6952 14.0188L41.9196 15.038L43.7335 14.6453L43.9252 15.5382L42.1113 15.9309L42.3403 17.0062Z" fill="white"/>
<path d="M47.8337 12.1815L47.9318 13.1025L46.6135 13.2381L47.0202 17.1979L46.0571 17.3008L45.6504 13.3363L44.3367 13.4719L44.2432 12.5555L47.8337 12.1815Z" fill="white"/>
<path d="M49.7506 16.1413L51.6206 16.1694L51.6066 17.0998L48.7688 17.053L48.8483 12.1441L49.816 12.1581L49.7506 16.1413Z" fill="white"/>
<path d="M53.079 16.2816L55.1361 16.4873L55.0426 17.413L52.0225 17.1044L52.5227 12.2189L55.5054 12.5228L55.4119 13.4438L53.3923 13.2381L53.2847 14.2759L55.1314 14.4676L55.0379 15.3746L53.1912 15.1829L53.079 16.2816Z" fill="white"/>
<path d="M58.2124 18.0768L57.6093 16.2068L56.894 16.0478L56.5246 17.7122L55.5896 17.5018L56.6555 12.7098L58.5723 13.1352C58.7825 13.1789 58.9817 13.2648 59.1577 13.3878C59.3337 13.5107 59.4829 13.6682 59.5962 13.8505C59.7143 14.0289 59.7943 14.2298 59.8313 14.4405C59.8683 14.6513 59.8615 14.8674 59.8112 15.0754C59.748 15.3707 59.5964 15.6398 59.3765 15.8468C59.1565 16.0591 58.881 16.205 58.5817 16.2676L59.2409 18.3106L58.2124 18.0768ZM57.3942 13.7991L57.081 15.2016L58.0487 15.4167C58.1357 15.4363 58.2258 15.4368 58.313 15.4183C58.4001 15.3997 58.4822 15.3625 58.5536 15.3092C58.7129 15.1997 58.8221 15.0316 58.8575 14.8416C58.8814 14.7505 58.8866 14.6556 58.873 14.5624C58.8593 14.4692 58.827 14.3798 58.778 14.2993C58.7362 14.2209 58.6777 14.1527 58.6066 14.0994C58.5355 14.0461 58.4536 14.009 58.3666 13.9908L57.3942 13.7991Z" fill="white"/>
<path d="M61.1672 13.7991L62.1022 14.0936L60.6108 18.7687L59.6758 18.4742L61.1672 13.7991ZM61.7375 13.6027C61.6687 13.5815 61.6048 13.5467 61.5496 13.5005C61.4943 13.4543 61.4488 13.3976 61.4158 13.3336C61.3827 13.2696 61.3627 13.1997 61.3569 13.1279C61.3512 13.0561 61.3598 12.9839 61.3822 12.9155C61.4022 12.8475 61.4362 12.7844 61.4821 12.7305C61.528 12.6765 61.5848 12.6328 61.6487 12.6022C61.7774 12.5377 61.9261 12.5261 62.0632 12.5698C62.2004 12.6134 62.315 12.709 62.3827 12.836C62.4155 12.8988 62.4353 12.9677 62.4409 13.0384C62.4465 13.109 62.4378 13.1801 62.4154 13.2474C62.3937 13.3158 62.3586 13.3792 62.312 13.4338C62.2654 13.4884 62.2084 13.5331 62.1443 13.5653C62.0829 13.5998 62.015 13.621 61.9449 13.6274C61.8748 13.6339 61.8041 13.6254 61.7375 13.6027Z" fill="white"/>
<path d="M67.9647 16.5995L67.5673 17.4317L66.3705 16.866L64.664 20.4659L63.7898 20.0498L65.4962 16.4499L64.3041 15.8889L64.7014 15.0521L67.9647 16.5995Z" fill="white"/>
<path d="M67.5251 20.966L69.2876 22.0507L68.8014 22.8408L66.2161 21.2465L68.7874 17.067L71.3447 18.6425L70.8585 19.4279L69.124 18.362L68.577 19.2549L70.1619 20.2273L69.685 21.0034L68.1001 20.031L67.5251 20.966Z" fill="white"/>
<path d="M72.8176 24.1966C72.713 24.3431 72.5793 24.4665 72.4248 24.559C72.2704 24.6515 72.0985 24.7111 71.9199 24.7342C71.5353 24.7737 71.1485 24.6832 70.8213 24.4771L70.6623 24.6734C70.7471 24.7767 70.802 24.9012 70.8213 25.0334C70.8313 25.0998 70.8268 25.1676 70.8083 25.2321C70.7897 25.2967 70.7575 25.3565 70.7138 25.4074C70.4021 25.7939 69.8644 25.6459 69.1008 24.9633L69.4935 24.4631C69.8722 24.7997 70.1013 24.9306 70.1761 24.8184C70.2509 24.7062 70.1761 24.608 69.9377 24.407L70.2369 24.0283C69.9739 23.7721 69.7864 23.4487 69.6946 23.0932C69.6102 22.7675 69.6249 22.4241 69.7366 22.1068L70.6717 22.2377C70.5888 22.4687 70.5856 22.7208 70.6628 22.9539C70.7399 23.1869 70.8928 23.3874 71.0971 23.5233C71.2513 23.6669 71.4485 23.7556 71.6581 23.7758C71.7347 23.7771 71.8105 23.7596 71.8787 23.7248C71.9469 23.6899 72.0055 23.6389 72.0494 23.5761C72.0933 23.5133 72.121 23.4407 72.1302 23.3646C72.1395 23.2886 72.1299 23.2114 72.1023 23.14C71.9782 22.8693 71.8212 22.6149 71.6348 22.3826C71.5183 22.2228 71.4121 22.0557 71.3168 21.8824C71.2351 21.7339 71.1692 21.5772 71.1205 21.4149C71.0737 21.2371 71.0737 21.0503 71.1205 20.8725C71.1696 20.6753 71.2622 20.4916 71.3916 20.3349C71.5089 20.1706 71.663 20.036 71.8416 19.9418C72.0202 19.8477 72.2183 19.7966 72.4202 19.7926C72.8347 19.7806 73.2397 19.9184 73.5609 20.1806C73.8562 20.4033 74.0803 20.7071 74.2061 21.0549C74.3234 21.4013 74.3428 21.7734 74.2622 22.1302L73.3272 21.9993C73.3864 21.805 73.3845 21.5972 73.3218 21.4041C73.2591 21.2109 73.1386 21.0417 72.9765 20.9193C72.8455 20.8078 72.6809 20.7436 72.509 20.737C72.4407 20.7381 72.3736 20.7542 72.3122 20.7841C72.2508 20.814 72.1967 20.8569 72.1537 20.9099C72.1086 20.9681 72.0779 21.0362 72.0641 21.1085C72.0503 21.1808 72.0538 21.2553 72.0742 21.326C72.1691 21.5782 72.3015 21.8146 72.4669 22.0273L72.668 22.3218C72.71 22.3873 72.7708 22.4855 72.8409 22.6117C72.9005 22.7096 72.9506 22.8129 72.9905 22.9203C73.0239 23.018 73.0504 23.118 73.07 23.2195C73.0881 23.3278 73.0881 23.4384 73.07 23.5467C73.0533 23.6559 73.0235 23.7626 72.9812 23.8646C72.9322 23.9867 72.8644 24.1002 72.7802 24.2012" fill="white"/>
<path d="M75.0102 28.3014L74.2247 27.5159L74.6081 24.6501L72.9812 26.277L72.2986 25.5945L75.7675 22.1161L76.4501 22.8034L74.9213 24.3322L77.6423 23.9909L78.4324 24.781L75.459 25.183L75.0102 28.3014Z" fill="white"/>
<path d="M78.9748 25.4869L79.5966 26.2302L75.8565 29.3813L75.1926 28.6286L78.9748 25.4869ZM79.5592 25.6318C79.513 25.5764 79.4784 25.5122 79.4575 25.4431C79.4367 25.3741 79.4299 25.3015 79.4377 25.2297C79.4552 25.0903 79.5267 24.9632 79.6368 24.8759C79.7469 24.7885 79.8869 24.7477 80.0267 24.7622C80.0979 24.7683 80.1671 24.7883 80.2305 24.8212C80.2939 24.8541 80.3501 24.8992 80.3961 24.9539C80.4419 25.0086 80.4763 25.072 80.4972 25.1403C80.518 25.2085 80.525 25.2803 80.5176 25.3513C80.5042 25.4933 80.4353 25.6243 80.3259 25.716C80.2159 25.8088 80.0736 25.8545 79.9301 25.8431C79.7865 25.8317 79.6533 25.7642 79.5592 25.6552" fill="white"/>
<path d="M77.6704 30.2463L78.7598 31.7704L78.0071 32.308L76.3521 29.9985L80.3446 27.142L80.9103 27.9274L77.6704 30.2463Z" fill="white"/>
<path d="M79.8676 35.5945L80.4941 34.8979L79.5263 33.126L78.5913 33.2944L78.0911 32.3593L83.2337 31.5131L83.8041 32.565L80.3351 36.4547L79.8676 35.5945ZM80.4614 32.9671L81.1252 34.178L82.5278 32.5978L80.4614 32.9671Z" fill="white"/>
<path d="M86.0437 37.6143L85.1881 37.9649L84.6879 36.7353L80.9992 38.2361L80.6345 37.3431L84.3232 35.8377L83.823 34.6175L84.6832 34.2715L86.0437 37.6143Z" fill="white"/>
<path d="M86.2792 38.4356L81.5947 39.9027L81.884 40.8262L86.5685 39.3591L86.2792 38.4356Z" fill="white"/>
<path d="M50.0075 91.9907C41.7656 91.9916 33.7086 89.5484 26.8554 84.9701C20.0021 80.3917 14.6605 73.8839 11.5061 66.2696C8.35162 58.6553 7.52603 50.2766 9.13371 42.193C10.7414 34.1095 14.7101 26.6843 20.538 20.8564C26.3659 15.0285 33.7911 11.0598 41.8746 9.45213C49.9581 7.84445 58.3369 8.67004 65.9512 11.8245C73.5655 14.9789 80.0733 20.3205 84.6516 27.1738C89.23 34.027 91.6732 42.084 91.6723 50.3259C91.6599 61.3723 87.2663 71.9627 79.4553 79.7737C71.6443 87.5847 61.0539 91.9783 50.0075 91.9907ZM50.0075 9.12388C41.8583 9.12296 33.8918 11.5386 27.1156 16.0654C20.3393 20.5922 15.0576 27.0267 11.9384 34.5553C8.81924 42.0839 8.00264 50.3684 9.5919 58.3611C11.1812 66.3538 15.1049 73.6958 20.8669 79.4584C26.6289 85.2211 33.9704 89.1457 41.9629 90.7358C49.9555 92.326 58.2401 91.5103 65.769 88.392C73.298 85.2737 79.7331 79.9927 84.2607 73.217C88.7882 66.4412 91.2048 58.4751 91.2048 50.3259C91.1936 39.4027 86.8498 28.9299 79.1263 21.2056C71.4029 13.4813 60.9307 9.13626 50.0075 9.12388ZM50.0075 80.3169C44.0745 80.3178 38.2745 78.5593 33.341 75.2636C28.4075 71.968 24.5622 67.2834 22.2913 61.8022C20.0204 56.321 19.426 50.2895 20.5832 44.4705C21.7405 38.6514 24.5974 33.3063 28.7926 29.111C32.9879 24.9158 38.333 22.0589 44.1521 20.9016C49.9711 19.7444 56.0026 20.3388 61.4838 22.6097C66.965 24.8806 71.6496 28.7259 74.9452 33.6594C78.2408 38.5929 79.9994 44.3929 79.9985 50.3259C79.9886 58.2769 76.8256 65.8995 71.2034 71.5218C65.5811 77.144 57.9585 80.307 50.0075 80.3169ZM50.0075 20.8117C44.1671 20.8108 38.4577 22.5418 33.6012 25.7858C28.7447 29.0299 24.9593 33.6412 22.7236 39.0367C20.488 44.4322 19.9026 50.3695 21.0414 56.0977C22.1802 61.8259 24.9921 67.0878 29.1216 71.2178C33.251 75.3479 38.5124 78.1606 44.2404 79.3004C49.9684 80.4401 55.9058 79.8556 61.3016 77.6208C66.6975 75.386 71.3094 71.6013 74.5542 66.7454C77.799 61.8894 79.5309 56.1802 79.5309 50.3399C79.5223 42.512 76.4092 35.0071 70.8744 29.4715C65.3397 23.9359 57.8353 20.8216 50.0075 20.8117Z" fill="white"/>
</g>
</svg>
