<svg width="36" height="37" viewBox="0 0 36 37" fill="none" xmlns="http://www.w3.org/2000/svg">
<path d="M18.0564 9.33876C20.9696 9.33876 21.3668 9.33876 22.5585 9.33876C23.6179 9.33876 24.1475 9.60359 24.5448 9.736C25.0744 10.0008 25.4717 10.1332 25.8689 10.5305C26.2662 10.9277 26.531 11.325 26.6634 11.8546C26.7958 12.2519 26.9282 12.7815 27.0606 13.8409C27.0606 15.0326 27.0606 15.2974 27.0606 18.343C27.0606 21.3885 27.0606 21.6533 27.0606 22.8451C27.0606 23.9044 26.7958 24.434 26.6634 24.8313C26.3986 25.3609 26.2662 25.7582 25.8689 26.1554C25.4717 26.5527 25.0744 26.8175 24.5448 26.9499C24.1475 27.0823 23.6179 27.2147 22.5585 27.3472C21.3668 27.3472 21.102 27.3472 18.0564 27.3472C15.0109 27.3472 14.7461 27.3472 13.5544 27.3472C12.495 27.3472 11.9654 27.0823 11.5681 26.9499C11.0385 26.6851 10.6412 26.5527 10.244 26.1554C9.84674 25.7582 9.58191 25.3609 9.44949 24.8313C9.31708 24.434 9.18466 23.9044 9.05225 22.8451C9.05225 21.6533 9.05225 21.3885 9.05225 18.343C9.05225 15.2974 9.05225 15.0326 9.05225 13.8409C9.05225 12.7815 9.31708 12.2519 9.44949 11.8546C9.71432 11.325 9.84674 10.9277 10.244 10.5305C10.6412 10.1332 11.0385 9.86842 11.5681 9.736C11.9654 9.60359 12.495 9.47117 13.5544 9.33876C14.7461 9.33876 15.1433 9.33876 18.0564 9.33876ZM18.0564 7.35254C15.0109 7.35254 14.7461 7.35254 13.5544 7.35254C12.3626 7.35254 11.5681 7.61737 10.9061 7.8822C10.244 8.14703 9.58191 8.54427 8.91984 9.20635C8.25776 9.86842 7.99293 10.3981 7.59569 11.1926C7.33086 11.8546 7.19844 12.6491 7.06603 13.8409C7.06603 15.0326 7.06603 15.4298 7.06603 18.343C7.06603 21.3885 7.06603 21.6533 7.06603 22.8451C7.06603 24.0368 7.33086 24.8313 7.59569 25.4934C7.86052 26.1554 8.25776 26.8175 8.91984 27.4796C9.58191 28.1416 10.1116 28.4065 10.9061 28.8037C11.5681 29.0686 12.3626 29.201 13.5544 29.3334C14.7461 29.3334 15.1433 29.3334 18.0564 29.3334C20.9696 29.3334 21.3668 29.3334 22.5585 29.3334C23.7503 29.3334 24.5448 29.0686 25.2068 28.8037C25.8689 28.5389 26.531 28.1416 27.1931 27.4796C27.8551 26.8175 28.12 26.2878 28.5172 25.4934C28.782 24.8313 28.9145 24.0368 29.0469 22.8451C29.0469 21.6533 29.0469 21.2561 29.0469 18.343C29.0469 15.4298 29.0469 15.0326 29.0469 13.8409C29.0469 12.6491 28.782 11.8546 28.5172 11.1926C28.2524 10.5305 27.8551 9.86842 27.1931 9.20635C26.531 8.54427 26.0013 8.27944 25.2068 7.8822C24.5448 7.61737 23.7503 7.48495 22.5585 7.35254C21.3668 7.35254 21.102 7.35254 18.0564 7.35254Z" fill="white"/>
<path d="M18.0564 12.6491C14.8785 12.6491 12.3626 15.165 12.3626 18.343C12.3626 21.5209 14.8785 24.0368 18.0564 24.0368C21.2344 24.0368 23.7503 21.5209 23.7503 18.343C23.7503 15.165 21.2344 12.6491 18.0564 12.6491ZM18.0564 22.0506C16.0702 22.0506 14.3488 20.4616 14.3488 18.343C14.3488 16.3567 15.9378 14.6353 18.0564 14.6353C20.0427 14.6353 21.7641 16.2243 21.7641 18.343C21.7641 20.3292 20.0427 22.0506 18.0564 22.0506Z" fill="white"/>
<path d="M23.8827 13.8409C24.614 13.8409 25.2068 13.248 25.2068 12.5167C25.2068 11.7854 24.614 11.1926 23.8827 11.1926C23.1514 11.1926 22.5585 11.7854 22.5585 12.5167C22.5585 13.248 23.1514 13.8409 23.8827 13.8409Z" fill="white"/>
</svg>
