<svg width="28" height="28" viewBox="0 0 28 28" fill="none" xmlns="http://www.w3.org/2000/svg">
<path d="M13.998 27.9999C12.9503 27.9999 12.0748 27.2487 11.8818 26.2566C10.9884 25.9933 10.3344 25.1656 10.3344 24.1881C10.3344 23.3102 10.8685 22.543 11.636 22.2096V13.3078H8.50505C8.17408 14.0798 7.40555 14.6172 6.52267 14.6172C5.54513 14.6172 4.71748 13.9632 4.45422 13.0697C3.46207 12.8768 2.71094 12.0012 2.71094 10.9535C2.71094 9.90579 3.46213 9.03024 4.45422 8.83725C4.71748 7.94381 5.54518 7.2898 6.52267 7.2898C7.39576 7.2898 8.16166 7.82087 8.49739 8.5836H11.636V5.7901C10.8686 5.45672 10.3344 4.68951 10.3344 3.81155C10.3344 2.83401 10.9883 2.00636 11.8818 1.7431C12.0748 0.751062 12.9503 -0.000183105 13.998 -0.000183105C15.0458 -0.000183105 15.9213 0.751062 16.1143 1.7431C17.0077 2.00636 17.6617 2.83406 17.6617 3.81155C17.6617 4.68951 17.1276 5.45672 16.3601 5.7901V8.5836H19.4987C19.8344 7.82087 20.6003 7.2898 21.4734 7.2898C22.451 7.2898 23.2786 7.94376 23.5419 8.83725C24.534 9.03024 25.2852 9.90579 25.2852 10.9535C25.2852 12.0012 24.534 12.8768 23.5419 13.0697C23.2786 13.9632 22.4509 14.6172 21.4734 14.6172C20.5905 14.6172 19.822 14.0798 19.491 13.3078H16.3601V22.2096C17.1275 22.543 17.6617 23.3102 17.6617 24.1881C17.6617 25.1657 17.0078 25.9933 16.1143 26.2566C15.9213 27.2487 15.0458 27.9999 13.998 27.9999Z" fill="white"/>
</svg>
