<svg width="39" height="38" viewBox="0 0 39 38" fill="none" xmlns="http://www.w3.org/2000/svg">
<path d="M33.411 21.663C34.9184 21.8173 36.8894 22.8637 38.335 21.767C36.2748 21.4048 34.2419 20.3684 32.343 19.6741C34.29 18.8893 36.8654 20.4824 38.572 18.8189C36.4739 18.7753 34.3072 18.0643 32.319 17.6651C34.1183 16.5952 36.9169 17.7758 38.335 15.8708C36.2542 16.1492 34.0016 15.7769 31.9722 15.6897C33.5792 14.3481 36.5323 15.0927 37.6277 13.0065C35.6189 13.6035 33.332 13.5767 31.3163 13.8014C32.6899 12.2385 35.7219 12.5169 36.467 10.2764C34.575 11.1686 32.3156 11.4973 30.3583 12.0238C31.464 10.2697 34.5063 10.0819 34.8841 7.75428C33.1672 8.92816 30.9798 9.59559 29.1324 10.4139C29.9428 8.51227 32.9096 7.86161 32.9096 5.50715C31.3953 6.92586 29.3488 7.91862 27.6559 9.012C28.1504 6.99965 30.9867 5.91297 30.609 3.58535C29.3419 5.22207 27.4773 6.51333 25.9802 7.85155C26.1485 5.79894 28.7719 4.28297 28.0405 2.04254C27.0515 3.84696 25.4171 5.39647 24.1534 6.9594C23.992 4.9068 26.3373 3.00847 25.2454 0.92233C24.5586 2.8609 23.1851 4.6519 22.1927 6.37582C21.7051 4.36346 23.7173 2.13981 22.2992 0.231421C21.9317 2.24378 20.8707 4.2293 20.1599 6.08402C19.3564 4.18235 20.9874 1.6669 19.2843 0C19.2396 2.04925 18.5117 4.16558 18.103 6.1075C17.0077 4.35004 18.2164 1.61659 16.266 0.231421C16.551 2.2639 16.1698 4.46743 16.0805 6.44625C14.707 4.87661 15.4693 1.99223 13.3335 0.92233C13.9413 2.88438 13.9172 5.11809 14.1473 7.08685C12.5471 5.74528 12.8321 2.78376 10.5384 2.05596C11.4518 3.90062 11.7883 6.11086 12.3274 8.01924C10.5143 6.91245 10.3083 3.94086 7.93897 3.57193C9.13736 5.2489 9.82413 7.38535 10.662 9.18976C8.71501 8.39823 8.04885 5.50044 5.63831 5.50044C7.09082 6.97952 8.10722 8.97847 9.22664 10.632C7.16636 10.149 6.0538 7.38199 3.67074 7.74757C5.34301 8.98517 6.66846 10.8064 8.03855 12.2687C5.93706 12.1043 4.38497 9.54192 2.09119 10.2563C3.93858 11.2222 5.525 12.8187 7.12515 14.053C5.02366 14.2106 3.08013 11.9199 0.944297 12.9864C2.92904 13.6572 4.76269 14.9988 6.52767 15.9714C4.46739 16.4477 2.19077 14.4789 0.236932 15.8641C2.29722 16.2229 4.33003 17.2593 6.22893 17.9569C4.28196 18.7384 1.7066 17.1453 0 18.8122C2.09806 18.8524 4.26479 19.5668 6.25297 19.9626C4.45365 21.0325 1.6551 19.8519 0.236932 21.7603C2.31782 21.4786 4.5704 21.8508 6.59978 21.9414C4.99276 23.283 2.03968 22.535 0.944297 24.6245C2.95308 24.0309 5.23999 24.0544 7.25564 23.8297C5.88211 25.3926 2.85006 25.1142 2.10493 27.3546C3.99352 26.4625 6.2564 26.1372 8.21024 25.6072C7.10455 27.3613 4.0622 27.5492 3.68448 29.8768C5.40138 28.7063 7.58872 28.0388 9.43611 27.2171C8.62573 29.1188 5.65892 29.7695 5.65892 32.1239C7.17323 30.7052 9.21978 29.7124 10.9126 28.6191C10.4182 30.6314 7.58185 31.7181 7.95957 34.0457C9.22664 32.4124 11.0912 31.1177 12.5883 29.7795C12.4201 31.8321 9.79666 33.3481 10.5281 35.5919C11.517 33.7841 13.1515 32.2212 14.4151 30.6717C14.5765 32.7243 12.2312 34.6226 13.3232 36.7087C14.0099 34.7735 15.3835 32.9792 16.3758 31.2553C16.8634 33.2676 14.8512 35.4913 16.2694 37.3996C16.6368 35.3873 17.6978 33.4018 18.4086 31.547C19.2122 33.4521 17.5811 35.9642 19.2877 37.6311C19.3289 35.5818 20.0569 33.4655 20.4655 31.5236C21.5609 33.281 20.3522 36.0145 22.3026 37.3996C22.0176 35.3672 22.3987 33.167 22.4914 31.1882C23.865 32.7545 23.0992 35.6388 25.2385 36.7087C24.6307 34.7467 24.6547 32.513 24.4247 30.5442C26.0248 31.8858 25.7398 34.8473 28.0336 35.5751C27.1202 33.7271 26.7837 31.5202 26.2446 29.6085C28.0405 30.6884 28.2328 33.66 30.6158 34.0289C29.4174 32.352 28.7307 30.2155 27.8928 28.4111C29.8398 29.2027 30.506 32.1004 32.9165 32.1004C31.464 30.6247 30.4476 28.6224 29.3282 26.9689C31.3884 27.4519 32.501 30.2222 34.8841 29.8533C33.2118 28.6157 31.8863 26.7945 30.5163 25.3322C32.6177 25.4966 34.1698 28.059 36.467 27.3446C34.6162 26.3786 33.0161 24.7822 31.4296 23.5479C33.5311 23.3903 35.4747 25.681 37.6105 24.6145C35.6292 23.9437 33.7921 22.6021 32.0271 21.6328C32.4767 21.5124 32.9511 21.5124 33.4007 21.6328M26.5571 23.1689L23.3705 21.8274L22.0863 24.9767L20.8157 21.8609L17.6292 23.2025L19.0027 20.0934L15.7818 18.839L19.0027 17.5846L17.6292 14.4722L20.8157 15.8138L22.0966 12.6644L23.3808 15.8104L26.5674 14.4688L25.1939 17.5813L28.4148 18.8357L25.1939 20.09L26.5571 23.1689ZM21.8631 8.90133C16.3381 8.90133 11.5616 13.1038 11.5616 18.7652C11.5616 24.4267 16.417 28.6258 21.8631 28.6258C24.4877 28.627 27.018 27.67 28.9573 25.9426C27.0928 28.884 22.4331 30.997 19.7719 30.997H17.8627C16.9589 30.8792 16.0633 30.7078 15.1809 30.4839C13.3128 29.9245 11.6012 28.9538 10.1778 27.6464C7.9218 25.6341 6.29417 21.9011 6.29417 19.5568V17.9536C6.29417 16.8937 6.91912 14.8109 7.28311 13.9624C7.82475 12.6629 8.61093 11.4741 9.60093 10.4575C12.4991 7.52621 15.8024 6.52004 18.8207 6.52004C21.3336 6.50891 23.7908 7.24341 25.8669 8.6263C26.897 9.29709 28.3015 10.538 28.9813 11.6247C27.0531 9.86021 24.5053 8.88545 21.8631 8.90133Z" fill="white"/>
</svg>
