<svg width="36" height="37" viewBox="0 0 36 37" fill="none" xmlns="http://www.w3.org/2000/svg">
<path d="M6.89413 17.9277C12.7946 15.4904 16.7291 13.8836 18.6978 13.1073C24.3187 10.8907 25.4866 10.5056 26.2479 10.4928C26.4153 10.4901 26.7897 10.5295 27.0322 10.716C27.237 10.8736 27.2933 11.0864 27.3203 11.2357C27.3472 11.3851 27.3808 11.7253 27.3541 11.9911C27.0495 15.0255 25.7315 22.3889 25.061 25.7874C24.7773 27.2254 24.2186 27.7076 23.6778 27.7548C22.5024 27.8573 21.6099 27.0183 20.4714 26.3108C18.69 25.2037 17.6837 24.5145 15.9545 23.4342C13.9562 22.1857 15.2516 21.4995 16.3905 20.378C16.6885 20.0845 21.8673 15.6186 21.9675 15.2134C21.9801 15.1628 21.9917 14.9739 21.8733 14.8742C21.755 14.7744 21.5803 14.8085 21.4543 14.8357C21.2756 14.8741 18.4298 16.6574 12.9168 20.1857C12.1091 20.7115 11.3774 20.9678 10.7219 20.9543C9.9992 20.9395 8.60906 20.5669 7.57563 20.2484C6.30808 19.8578 5.30067 19.6513 5.38839 18.9878C5.43408 18.6423 5.936 18.2889 6.89413 17.9277Z" fill="white"/>
</svg>
