<svg width="37" height="37" viewBox="0 0 37 37" fill="none" xmlns="http://www.w3.org/2000/svg">
<path d="M29.3049 11.0963C28.4807 11.5311 27.6564 11.676 26.6947 11.8209C27.6564 11.2412 28.3433 10.3716 28.618 9.21222C27.7938 9.79193 26.8321 10.0818 25.733 10.3716C24.9088 9.50208 23.6723 8.92236 22.4359 8.92236C19.5509 8.92236 17.3529 11.8209 18.0398 14.7195C14.3305 14.5746 11.0334 12.6905 8.6979 9.79194C7.46147 11.9659 8.14837 14.7195 10.0717 16.1688C9.3848 16.1688 8.6979 15.8789 8.01099 15.5891C8.01099 17.763 9.52218 19.792 11.5829 20.3717C10.896 20.5167 10.2091 20.6616 9.52218 20.5167C10.0717 22.4007 11.7203 23.85 13.781 23.85C12.1324 25.1544 9.65956 25.879 7.32409 25.5892C9.3848 26.8935 11.7203 27.7631 14.1931 27.7631C22.5733 27.7631 27.2442 20.3717 26.9695 13.5601C27.9311 12.9804 28.7554 12.1108 29.3049 11.0963Z" fill="white"/>
</svg>
