<svg width="37" height="37" viewBox="0 0 37 37" fill="none" xmlns="http://www.w3.org/2000/svg">
<path d="M29.1264 12.8758C28.8516 11.8945 28.1647 11.1936 27.2031 10.9132C25.5545 10.4927 18.5481 10.4927 18.5481 10.4927C18.5481 10.4927 11.6791 10.4927 9.89315 10.9132C8.93149 11.1936 8.24458 11.8945 7.96982 12.8758C7.69506 14.6982 7.69506 18.343 7.69506 18.343C7.69506 18.343 7.69506 21.9878 8.10721 23.8102C8.38197 24.7914 9.06886 25.4924 10.0305 25.7727C11.6791 26.1933 18.6855 26.1933 18.6855 26.1933C18.6855 26.1933 25.5545 26.1933 27.3404 25.7727C28.3021 25.4924 28.989 24.7914 29.2638 23.8102C29.6759 21.9878 29.6759 18.343 29.6759 18.343C29.6759 18.343 29.6759 14.6982 29.1264 12.8758ZM16.4874 21.7074V14.9786L22.2574 18.343L16.4874 21.7074Z" fill="white"/>
</svg>
